<svg width="20" height="20" viewBox="0 0 20 20" fill="none" xmlns="http://www.w3.org/2000/svg">
<g clip-path="url(#clip0_4002_461)">
<path fill-rule="evenodd" clip-rule="evenodd" d="M9.17196 0.313109C8.41474 0.485942 8.22049 0.598189 5.32081 2.53927C3.79678 3.55949 2.45062 4.48081 2.32935 4.58667C1.78075 5.06562 1.31702 5.82595 1.10891 6.58786L1 6.98651V11.9179V16.8492L1.10788 17.2484C1.4388 18.4729 2.32771 19.4966 3.45549 19.9521C4.08539 20.2066 4.20364 20.2223 5.6366 20.2426L6.98559 20.2617L6.9986 17.0031L7.00997 14.143C7.01102 13.8808 7.07194 13.6224 7.1881 13.3874C7.48159 12.7936 8.00854 12.3931 8.65225 12.2745C9.0135 12.2079 10.9742 12.2079 11.3355 12.2745C11.9792 12.3931 12.5061 12.7936 12.7996 13.3874C12.9158 13.6224 12.9767 13.8808 12.9777 14.143L12.9891 17.0031L13.0021 20.2617L14.3511 20.2426C15.7841 20.2223 15.9023 20.2066 16.5322 19.9521C17.6609 19.4962 18.542 18.4808 18.8788 17.2479L18.9877 16.8492V11.9413C18.9877 7.26036 18.9835 7.01717 18.8978 6.68123C18.7708 6.18392 18.5789 5.74028 18.3263 5.36028C17.8965 4.7139 17.6671 4.53614 14.7548 2.59271C13.2533 1.59075 11.9218 0.718937 11.796 0.655346C11.6701 0.591755 11.3876 0.481621 11.168 0.410563C10.8274 0.300382 10.6722 0.27906 10.1113 0.265111C9.66806 0.254121 9.36194 0.26976 9.17196 0.313109Z" fill="#AFB6C6"/>
</g>
<defs>
<clipPath id="clip0_4002_461">
<rect width="20" height="20" fill="white"/>
</clipPath>
</defs>
</svg>
