<svg width="4" height="12" viewBox="0 0 4 12" fill="none" xmlns="http://www.w3.org/2000/svg">
<mask id="mask0_4002_81" style="mask-type:alpha" maskUnits="userSpaceOnUse" x="0" y="0" width="4" height="12">
<path fill-rule="evenodd" clip-rule="evenodd" d="M1.68881 2.87946C1.30365 2.87946 0.97351 2.73996 0.698394 2.46094C0.423277 2.18192 0.285721 1.84152 0.285721 1.43973C0.285721 1.03794 0.423277 0.697546 0.698394 0.418527C0.97351 0.139508 1.30365 0 1.68881 0C2.07397 0 2.40411 0.139508 2.67922 0.418527C2.95434 0.697546 3.0919 1.03794 3.0919 1.43973C3.0919 1.84152 2.95434 2.18192 2.67922 2.46094C2.40411 2.73996 2.07397 2.87946 1.68881 2.87946ZM1.68881 4.28571C2.07397 4.28571 2.40411 4.42522 2.67922 4.70424C2.95434 4.98326 3.0919 5.32366 3.0919 5.72545C3.0919 6.12723 2.95434 6.46763 2.67922 6.74665C2.40411 7.02567 2.07397 7.16518 1.68881 7.16518C1.30365 7.16518 0.97351 7.02567 0.698394 6.74665C0.423277 6.46763 0.285721 6.12723 0.285721 5.72545C0.285721 5.32366 0.423277 4.98326 0.698394 4.70424C0.97351 4.42522 1.30365 4.28571 1.68881 4.28571ZM1.68881 8.57143C2.07397 8.57143 2.40411 8.71094 2.67922 8.98996C2.95434 9.26897 3.0919 9.60937 3.0919 10.0112C3.0919 10.4129 2.95434 10.7533 2.67922 11.0324C2.40411 11.3114 2.07397 11.4509 1.68881 11.4509C1.30365 11.4509 0.97351 11.3114 0.698394 11.0324C0.423277 10.7533 0.285721 10.4129 0.285721 10.0112C0.285721 9.60937 0.423277 9.26897 0.698394 8.98996C0.97351 8.71094 1.30365 8.57143 1.68881 8.57143Z" fill="white"/>
</mask>
<g mask="url(#mask0_4002_81)">
<path fill-rule="evenodd" clip-rule="evenodd" d="M-35.6333 -33.2144H40.4305V43.9285H-35.6333V-33.2144Z" fill="#AFB6C6"/>
</g>
</svg>
