<svg width="20" height="20" viewBox="0 0 20 20" fill="none" xmlns="http://www.w3.org/2000/svg">
<path fill-rule="evenodd" clip-rule="evenodd" d="M1.34019 2.06025C0.675808 2.23917 0.166515 2.7807 0.0412037 3.44149C-0.0137346 3.73114 -0.0137346 15.5859 0.0412037 15.8756C0.166007 16.5337 0.650878 17.0534 1.32717 17.2541C1.5195 17.3112 2.33341 17.3171 10.0043 17.3171C17.6752 17.3171 18.4891 17.3112 18.6814 17.2541C19.3614 17.0524 19.8462 16.5298 19.9688 15.8663C19.9954 15.7227 20.0051 13.9165 19.9975 10.5341C19.9847 4.85406 20.0055 5.28446 19.7228 4.8446C19.444 4.41072 18.9707 4.10157 18.4758 4.02998C18.3403 4.01041 16.4007 3.99357 14.1657 3.99259L10.102 3.99083L9.37911 3.12577C8.98153 2.64996 8.60142 2.20205 8.53441 2.13035L8.41257 2L4.97866 2.00258C2.15262 2.00469 1.50852 2.01489 1.34019 2.06025Z" fill="#AFB6C6"/>
</svg>
